<svg id="_ÎÓÈ_1" data-name="—ÎÓÈ_1" xmlns="http://www.w3.org/2000/svg" viewBox="0 0 652.96 433.26"><path d="M670.34,106.32l-.26-.82-.24-.78-2-6.23-.2,0a127.77,127.77,0,0,0-42.36-56.64,125.51,125.51,0,0,0-76.2-25.5h0a125.35,125.35,0,0,0-78.17,27c-2.08,1.63-4.19,3.41-6.27,5.27-10.35,8.84-23.31,20.45-31.85,30.05C424.26,69.1,411.3,57.49,401,48.65c-2.08-1.86-4.19-3.64-6.27-5.27a125.35,125.35,0,0,0-78.17-27h0a125.52,125.52,0,0,0-76.21,25.5,127.77,127.77,0,0,0-42.36,56.64l-.2,0-1.95,6.23c-.09.26-.17.52-.25.78l-.25.82c-11,35.07-7,73.9,12,115.42.34.75.71,1.5,1.07,2.25H33.73a10.32,10.32,0,0,0,0,20.63H265a10.32,10.32,0,0,0,9.17-5.6L305.53,178l31.27,124.1a10.33,10.33,0,0,0,9.27,7.77l.74,0a10.32,10.32,0,0,0,9.54-6.4L390.17,221l11.09,18.63a10.29,10.29,0,0,0,8.86,5h78.37a10.32,10.32,0,0,0,0-20.63H416l-18.65-31.33A10.32,10.32,0,0,0,378.92,194l-29.77,72.61L318.85,146.4a10.31,10.31,0,0,0-19.17-2.19l-41,79.78H231.2a215,215,0,0,1-14.33-34.31h0c-7.8-25-9.66-50-2.78-74.28l.91-3C228.37,68,270.11,37,316.5,37a105,105,0,0,1,65.42,22.6c1.77,1.39,3.57,2.9,5.34,4.49l.19.17c16.67,14.24,29,26.26,33.89,33a14.18,14.18,0,0,0,11.46,5.86h0a14.2,14.2,0,0,0,11.47-5.86c4.86-6.72,17.21-18.74,33.88-33l.2-.17c1.77-1.59,3.56-3.1,5.33-4.49A105,105,0,0,1,549.11,37c46.39,0,88.13,31,101.49,75.39l.91,3c6.88,24.25,5,49.33-2.78,74.28h0C624.21,268.07,540.8,345.08,484,390.36h0c-23.77,18.93-42.9,32.32-51.14,37.94-8.24-5.62-27.38-19-51.14-37.94h0c-11.46-9.13-24-19.54-36.92-31A10.35,10.35,0,0,0,331,374.82a921.06,921.06,0,0,0,92.18,71.85,17.27,17.27,0,0,0,9.65,3h0a17.27,17.27,0,0,0,9.65-3c19-12.8,85.39-59.34,142.85-121.1,33.42-35.93,58-70.87,73-103.83C677.3,180.22,681.33,141.39,670.34,106.32Z" transform="translate(-23.42 -16.37)"/></svg>